# xmcd
#
# Track frame offsets: 
#        150
#        35929
#        60338
#        92246
#        109005
#        151995
#        171816
#        189354
#        210248
#        232301
#        256947
#
# Disc length: 3735 seconds
#
# Revision: 0
# Processed by: cddbd v1.5.2PL0 Copyright (c) Steve Scherf et al.
# Submitted via: ExactAudioCopy v1.2
#
DISCID=8f0e950b
DTITLE=Eric Clapton - Back to Budokan [2nd Night, 15th April 2016] (Di
DTITLE=sc 1)
DYEAR=2016
DGENRE=Blues
TTITLE0=Somebody's Knocking
TTITLE1=Key to the Highway
TTITLE2=I'm Your Hoochie Coochie Man
TTITLE3=Next Time You See Me
TTITLE4=I Shot the Sheriff
TTITLE5=Circus
TTITLE6=Nobody Knows You When You're Down and Out
TTITLE7=I Dreamed I Saw St. Augustine
TTITLE8=I Will Be There
TTITLE9=Cypress Grove
TTITLE10=Sunshine State
EXTD=
EXTT0=
EXTT1=
EXTT2=
EXTT3=
EXTT4=
EXTT5=
EXTT6=
EXTT7=
EXTT8=
EXTT9=
EXTT10=
PLAYORDER=
